<svg id="Layer_1" data-name="Layer 1" xmlns="http://www.w3.org/2000/svg" viewBox="0 0 906.89 155.41"><defs><style>.cls-1{fill:#f94e4e;}.cls-2{fill:#2a347a;}</style></defs><title>Nor-Way_RGB_hovedlogo</title><path class="cls-1" d="M133.15,151.21H90.72L33.18,46V151.21H0V4.21H45.36L100,105.85V4.2h33.18Z"/><path class="cls-1" d="M143.43,77.91C143.43,32.55,175.14,0,219.87,0,265,0,296.73,32.55,296.73,77.91c0,45.58-31.71,77.5-76.86,77.5C175.14,155.41,143.43,123.49,143.43,77.91Zm116.13.21c0-25.2-14.7-44.73-39.69-44.73-24.57,0-39.48,19.53-39.48,44.73S195.51,122,219.87,122c24.78,0,39.69-18.69,39.69-43.89Z"/><path class="cls-1" d="M342.51,89.25v62H307.23V4.21h64.68c31.92,0,52.29,17.22,52.29,45.36,0,22.68-13.65,39.27-39.69,42.42l43.68,59.22H386ZM386.4,52.92c0-12.18-7.35-19.11-21.21-19.11H342.51V73.08h20.16c15.75,0,23.73-7.56,23.73-20.16Z"/><path class="cls-1" d="M430.49,79.8a25.2,25.2,0,1,1,50.4,0h0a25.27,25.27,0,0,1-25.2,25.2,25,25,0,0,1-25.2-24.81Z"/><path class="cls-2" d="M695.53,4.2l-75.82,147H579.39L576,79.38l-37.8,71.83H499.59l-6.72-147h35.28l1.89,96.6,48.51-96.6h37L605.22,23.74l3.15,78.12L657.94,4.21Z"/><path class="cls-2" d="M687.12,121.17l-14.91,30H634.62l75.81-147h50l13.86,147H738.36l-2.31-30Zm42.21-85.05-29,58.38H734Z"/><path class="cls-2" d="M834.75,99.54l-15.12,51.67H784.55l15.12-52.5L770.06,4.21h35.28l17.85,59.85L865.82,4.21h39.49Z"/></svg>